<svg xmlns="http://www.w3.org/2000/svg" xmlns:xlink="http://www.w3.org/1999/xlink" data-v-6805eed4="" version="1.0" preserveAspectRatio="xMidYMid meet" color-interpolation-filters="sRGB" style="margin: auto;" viewBox="79.15 110.42 181.71 29.17"> <!----> <g data-v-6805eed4="" fill="#444" class="iconlinesvg-g iconlinesvg" transform="translate(79.14654970169067,110.4187822341919)"><g class="tp-name"><g transform="translate(0, 0)"><g data-gra="path-name" fill="#444" transform="scale(1)"><path d="M3.77-20.89L17.61-20.89L17.61-22.54L2.06-22.54L2.06 0L18.00 0L18.00-1.67L3.77-1.67L3.77-10.56L16.97-10.56L16.97-12.14L3.77-12.14Z" transform="translate(-2.0604543015560717, 22.536218923269534)"/></g></g><g transform="translate(19, 0)"><g data-gra="path-name" fill="#444" transform="scale(1)"><path d="M26.91 0L26.91-9.53C26.91-13.49 24.15-16.23 20.25-16.23C17.80-16.23 15.32-14.91 14.36-12.30C13.43-15.13 10.88-16.23 8.47-16.23C6.41-16.23 4.38-15.36 3.28-13.26L3.25-15.90L1.77-15.90L1.77 0L3.35 0L3.35-9.43C3.35-12.49 5.41-14.71 8.43-14.71C11.46-14.71 13.55-12.49 13.55-9.43L13.55 0L15.13 0L15.13-9.43C15.13-12.49 17.22-14.75 20.25-14.75C23.28-14.75 25.34-12.59 25.34-9.53L25.34 0Z" transform="translate(-1.7707029153997491, 22.536218923269534)"/></g></g><g transform="translate(48, 0)"><g data-gra="path-name" fill="#444" transform="scale(1)"><path d="M9.85-1.22C6.21-1.22 3.41-4.02 3.41-7.92C3.41-11.82 6.15-14.62 9.85-14.62C13.46-14.62 16.35-12.43 16.35-7.95C16.35-3.48 13.46-1.22 9.85-1.22ZM3.28 6.63L3.28-3.67C4.64-1.03 7.15 0.29 9.85 0.29C14.33 0.29 17.93-2.61 17.93-7.95C17.93-13.07 14.52-15.97 10.21-16.13C7.12-16.13 4.57-14.55 3.32-12.14L3.32-15.90L1.77-15.90L1.77 6.63Z" transform="translate(-1.7707029153997491, 22.536218923269534)"/></g></g><g transform="translate(68, 0)"><g data-gra="path-name" fill="#444" transform="scale(1)"><path d="M9.11 0.23C13.59 0.23 17.19-2.87 17.19-7.92C17.19-12.97 13.59-16.19 9.11-16.19C4.64-16.19 1.03-12.97 1.03-7.92C1.03-2.87 4.64 0.23 9.11 0.23ZM9.11-1.32C5.51-1.32 2.58-3.80 2.58-7.92C2.58-12.04 5.51-14.71 9.11-14.71C12.72-14.71 15.65-12.04 15.65-7.92C15.65-3.80 12.72-1.32 9.11-1.32Z" transform="translate(-1.0302271507780358, 22.536218923269534)"/></g></g><g transform="translate(88, 7.998542730684466)"><g><g class="imagesvg"><g><rect fill="#444" fill-opacity="0" stroke-width="2" x="0" y="0" width="22.996556284207372" height="13.171220745034205" class="image-rect"/> <svg x="0" y="0" width="22.996556284207372" height="13.171220745034205" filtersec="colorsb5882938715" class="image-svg-svg primary" style="overflow: visible;"><svg xmlns="http://www.w3.org/2000/svg" viewBox="0 0 113.75 65.1500015258789"><title>W</title><g id="c5108e0d-badd-410c-9cdd-577363a06d53" data-name="圖層 2"><g id="7053f3b4-d754-48b9-b7cd-f6a9289d401d" data-name="栝鍣 1"><polygon points="37.61 40.89 14.01 0 0 0 19.61 33.97 37.61 65.15 37.61 40.89" fill="#444"/><polygon points="99.74 0 76.14 40.88 76.14 65.15 94.14 33.97 113.75 0 99.74 0" fill="#444"/><polygon points="64.45 0 40.84 40.88 40.84 65.15 58.84 33.97 78.46 0 64.45 0" fill="#444"/><polygon points="62.32 33.97 58.61 40.39 72.91 65.15 72.91 40.89 65.62 28.26 62.32 33.97" fill="#444"/></g></g></svg></svg> <!----></g></g></g></g><g transform="translate(114, 0)"><g data-gra="path-name" fill="#444" transform="scale(1)"><path d="M8.95 0.23C11.49 0.23 14.26-0.80 15.81-2.83L14.68-3.73C13.49-2.16 11.04-1.32 8.95-1.32C5.67-1.32 2.80-3.48 2.48-7.21L16.81-7.21C17.42-13.43 13.43-16.16 8.95-16.16C4.48-16.16 0.87-12.72 0.87-7.95C0.87-2.90 4.48 0.23 8.95 0.23ZM2.48-8.60C2.83-12.49 5.67-14.71 8.95-14.71C12.78-14.71 15.36-12.52 15.39-8.60Z" transform="translate(-0.8692541584689679, 22.536218923269534)"/></g></g><g transform="translate(134, 0)"><g data-gra="path-name" fill="#444" transform="scale(1)"><path d="M1.77-15.90L1.77 0L3.35 0L3.35-9.27C3.35-12.17 5.63-14.55 8.60-14.58C9.53-14.58 10.46-14.36 11.30-13.84L12.01-15.13C10.95-15.78 9.79-16.10 8.60-16.07C6.57-16.07 4.31-15.23 3.32-13.07L3.25-15.90Z" transform="translate(-1.7707029153997491, 22.536218923269534)"/></g></g><g transform="translate(148, 0)"><g data-gra="path-name" fill="#444" transform="scale(1)"><path d="M1.16-0.97C1.16 0.71 3.70 0.71 3.70-0.97C3.70-2.64 1.16-2.64 1.16-0.97Z" transform="translate(-1.1590055446252903, 22.536218923269534)"/></g></g><g transform="translate(154, 0)"><g data-gra="path-name" fill="#444" transform="scale(1)"><path d="M21.86 0L11.75-22.54L9.85-22.54L-0.26 0L1.61 0L4.06-5.54L17.51-5.54L19.99 0ZM4.73-7.15L10.79-20.86L16.84-7.15Z" transform="translate(0.25755678769450896, 22.536218923269534)"/></g></g><g transform="translate(180, 0)"><g data-gra="path-name" fill="#444" transform="scale(1)"><path d="M3.80 0L3.80-22.54L2.09-22.54L2.09 0Z" transform="translate(-2.092648900017885, 22.536218923269534)"/></g></g></g> <!----></g><defs v-gra="od"/></svg>